<svg width="1200" height="900" viewBox="0 0 1200 900" xmlns="http://www.w3.org/2000/svg" role="img" aria-label="Abstract luminous gradient visual">
  <defs>
    <linearGradient id="g1" x1="0%" y1="0%" x2="100%" y2="0%">
      <stop offset="0%" stop-color="#7C3AED"/>
      <stop offset="50%" stop-color="#2563EB"/>
      <stop offset="100%" stop-color="#7C3AED"/>
    </linearGradient>
    <radialGradient id="b1" cx="50%" cy="40%" r="50%">
      <stop offset="0%" stop-color="#7C3AED" stop-opacity="0.9"/>
      <stop offset="70%" stop-color="#7C3AED" stop-opacity="0.15"/>
      <stop offset="100%" stop-color="#7C3AED" stop-opacity="0"/>
    </radialGradient>
    <filter id="blur" x="-20%" y="-20%" width="140%" height="140%">
      <feGaussianBlur stdDeviation="40"/>
    </filter>
  </defs>
  <rect width="1200" height="900" fill="#0B0F18"/>
  <g filter="url(#blur)">
    <circle cx="320" cy="280" r="240" fill="url(#b1)"/>
    <circle cx="960" cy="500" r="280" fill="url(#b1)"/>
  </g>
  <g opacity="0.2">
    <path d="M0 640 C300 520, 500 760, 800 620 C980 540, 1100 560, 1200 520 L1200 900 L0 900 Z" fill="url(#g1)"/>
  </g>
  <g>
    <rect x="220" y="220" rx="20" ry="20" width="760" height="460" fill="#0E1525" stroke="rgba(255,255,255,0.08)"/>
    <rect x="240" y="260" rx="12" ry="12" width="340" height="60" fill="#111A2D" stroke="rgba(255,255,255,0.08)"/>
    <rect x="240" y="340" rx="12" ry="12" width="340" height="240" fill="#111A2D" stroke="rgba(255,255,255,0.08)"/>
    <rect x="600" y="260" rx="12" ry="12" width="360" height="320" fill="#111A2D" stroke="rgba(255,255,255,0.08)"/>
    <rect x="600" y="600" rx="12" ry="12" width="360" height="60" fill="#111A2D" stroke="rgba(255,255,255,0.08)"/>
    <rect x="240" y="600" rx="12" ry="12" width="340" height="60" fill="#111A2D" stroke="rgba(255,255,255,0.08)"/>
    <rect x="240" y="260" width="340" height="6" fill="url(#g1)"/>
  </g>
</svg>
